# xmcd
#
# Track frame offsets:
#	150
#	11494
#	22973
#	32643
#	43561
#	52464
#	62448
#	72716
#	83858
#	96884
#	114894
#	129277
#	139867
#	147555
#	161567
#	176999
#	185347
#	199441
#	209394
#	220655
#
# Disc length: 3137 seconds
#
# Revision: 1
# Processed by: cddbd v1.5.2PL0 Copyright (c) Steve Scherf et al.
# Submitted via: audiograbber 1.83.01
#
DISCID=2b0c3f14
DTITLE=Marty Robbins - The Absolutely Essential 3 CD Collection CD2
DYEAR=1918
DGENRE=Country
TTITLE0=A White Sport Coat (And A Pink Carnation)
TTITLE1=The Story Of My Life
TTITLE2=Just Married
TTITLE3=She Was Only Seventeen (He Was One Year More)
TTITLE4=Crying Steel Guitar Waltz
TTITLE5=Stairway Of Love
TTITLE6=Ain't I The Lucky One?
TTITLE7=Kaw-Liga
TTITLE8=The Hanging Tree
TTITLE9=Big Iron
TTITLE10=Cool Water
TTITLE11=Billy The Kid
TTITLE12=A Hundred And Sixty Acres
TTITLE13=They're Hanging Me Tonight
TTITLE14=The Strawberry Roan
TTITLE15=In The Valley
TTITLE16=The Master's Call
TTITLE17=Running Gun
TTITLE18=The Little Green Valley
TTITLE19=Utah Carol
EXTD=
EXTT0=
EXTT1=
EXTT2=
EXTT3=
EXTT4=
EXTT5=
EXTT6=
EXTT7=
EXTT8=
EXTT9=
EXTT10=
EXTT11=
EXTT12=
EXTT13=
EXTT14=
EXTT15=
EXTT16=
EXTT17=
EXTT18=
EXTT19=
PLAYORDER=
